<svg width="136" height="92" viewBox="0 0 136 92" fill="none" xmlns="http://www.w3.org/2000/svg">
<path d="M102.596 80.5867H111.483V84.0346H99.0483H97.386V80.5867L105.868 71.601H97.831V68.1531H110.07H111.038V71.601L102.596 80.5867Z" fill="#B00F0A"/>
<path d="M36.5589 72.7895C36.5589 71.7055 36.7945 70.8566 37.2526 70.2427C37.7108 69.6289 38.2213 69.1587 38.7579 68.8453C39.4124 68.4665 40.1454 68.2445 40.957 68.1531H45.355V71.9406H42.3968C41.978 71.9406 41.6376 72.019 41.3758 72.1626C41.114 72.3063 40.9046 72.463 40.7606 72.6328C40.5905 72.8418 40.4727 73.0769 40.4203 73.325V84.0346H36.5589V72.7895Z" fill="#B00F0A"/>
<path d="M128.094 74.0695C128.133 74.383 128.172 74.7095 128.199 75.036C128.225 75.3756 128.251 75.7282 128.251 76.107V76.6686H117.256C117.295 77.0212 117.347 77.3869 117.413 77.7526C117.478 78.1183 117.583 78.484 117.727 78.8366C117.963 79.3851 118.316 79.8553 118.8 80.2733C119.285 80.6912 119.952 80.9002 120.816 80.9002C121.68 80.9002 122.348 80.6912 122.832 80.2733C123.316 79.8553 123.67 79.3721 123.905 78.8366H127.989C127.819 79.568 127.583 80.208 127.282 80.7434C126.981 81.292 126.641 81.7622 126.274 82.154C125.908 82.5458 125.515 82.8854 125.096 83.1466C124.678 83.4078 124.272 83.6168 123.866 83.7865C122.897 84.1653 121.889 84.3482 120.816 84.3482C119.416 84.322 118.172 84.0347 117.086 83.4731C116.627 83.2249 116.169 82.8984 115.724 82.5197C115.279 82.1279 114.873 81.6446 114.533 81.07C114.193 80.4822 113.905 79.79 113.695 78.9672C113.486 78.1575 113.381 77.204 113.381 76.12C113.381 75.036 113.486 74.0826 113.695 73.2728C113.905 72.4631 114.18 71.7578 114.533 71.157C114.873 70.5562 115.279 70.0599 115.724 69.6681C116.169 69.2763 116.627 68.9498 117.086 68.7016C118.172 68.1139 119.416 67.8005 120.816 67.7613C121.968 67.8005 123.041 68.0486 124.049 68.4796C124.468 68.6625 124.887 68.9106 125.319 69.211C125.751 69.5114 126.144 69.8901 126.51 70.3342C126.877 70.7783 127.204 71.3137 127.479 71.9276C127.767 72.5414 127.963 73.2598 128.094 74.0695ZM124.141 74.0695C124.036 73.7299 123.905 73.4034 123.748 73.0638C123.591 72.7243 123.382 72.4239 123.107 72.1496C122.832 71.8753 122.505 71.6664 122.138 71.5096C121.759 71.3529 121.327 71.2746 120.816 71.2746C120.319 71.2746 119.874 71.3529 119.494 71.5096C119.115 71.6664 118.787 71.8753 118.525 72.1496C118.251 72.4239 118.028 72.7243 117.871 73.0638C117.701 73.4034 117.583 73.7299 117.491 74.0695H124.141Z" fill="#B00F0A"/>
<path d="M78.6941 84.0347H74.9636V81.8405L75.6573 80.9263C75.3039 81.8013 74.8458 82.4674 74.3091 82.9376C73.7594 83.3947 73.2358 83.7343 72.7122 83.9433C72.1101 84.1784 71.4818 84.309 70.8273 84.3482C69.5315 84.322 68.3796 84.0347 67.3717 83.4731C66.9267 83.2249 66.5078 82.8984 66.102 82.5197C65.6962 82.1279 65.3297 81.6446 65.0025 81.07C64.6753 80.4822 64.4135 79.79 64.2171 78.9672C64.0208 78.1575 63.9161 77.204 63.9161 76.12C63.9161 75.036 64.0208 74.0826 64.2302 73.2728C64.4397 72.4631 64.7145 71.7578 65.068 71.157C65.4083 70.5562 65.814 70.0599 66.2591 69.6681C66.7041 69.2763 67.1623 68.9498 67.6204 68.7016C68.7068 68.1139 69.9503 67.8005 71.3509 67.7613C72.6729 67.7613 73.7856 67.9572 74.7149 68.3359C75.6312 68.7278 76.3904 69.2763 76.9925 69.9946C77.5946 70.713 78.0265 71.588 78.3014 72.6329C78.5763 73.6646 78.7072 74.8401 78.7072 76.1592V84.0347H78.6941ZM71.3509 71.4313C70.5786 71.4313 69.9503 71.588 69.4791 71.9015C69.0079 72.2149 68.6414 72.6067 68.3927 73.0769C68.144 73.5471 67.9738 74.0565 67.8953 74.5919C67.8167 75.1405 67.7644 75.6368 67.7644 76.0939C67.7644 76.551 67.8037 77.0604 67.8953 77.5959C67.9738 78.1444 68.144 78.6407 68.3927 79.1109C68.6414 79.5811 69.0079 79.9729 69.4791 80.2863C69.9503 80.5998 70.5786 80.7565 71.3509 80.7565C72.1232 80.7565 72.7515 80.5998 73.2227 80.2863C73.6939 79.9729 74.0604 79.5811 74.3222 79.1109C74.584 78.6407 74.7542 78.1313 74.8458 77.5959C74.9243 77.0473 74.9767 76.551 74.9767 76.0939C74.9767 75.5323 74.9374 74.9707 74.872 74.4221C74.7934 73.8736 74.6364 73.3642 74.4008 72.9202C74.1651 72.4761 73.7986 72.1104 73.3143 71.8362C72.8169 71.5749 72.1625 71.4313 71.3509 71.4313Z" fill="#B00F0A"/>
<path d="M19.7914 76.1069C19.7914 75.0229 19.8961 74.0695 20.1055 73.2597C20.3149 72.45 20.5898 71.7447 20.9432 71.1439C21.2966 70.5431 21.6893 70.0468 22.1344 69.655C22.5794 69.2632 23.0375 68.9367 23.4957 68.6885C24.5821 68.1008 25.8256 67.7874 27.2262 67.7482C28.6137 67.7874 29.8441 68.1008 30.9305 68.6885C31.3886 68.9367 31.8468 69.2632 32.2918 69.655C32.7369 70.0468 33.1426 70.5431 33.483 71.1439C33.8233 71.7447 34.1113 72.45 34.3338 73.2597C34.5563 74.0695 34.661 75.0229 34.661 76.1069C34.661 77.1909 34.5563 78.1443 34.3338 78.9541C34.1113 79.7638 33.8364 80.4691 33.483 81.0568C33.1426 81.6446 32.7369 82.1278 32.2918 82.5065C31.8468 82.8984 31.3886 83.2118 30.9305 83.46C29.8441 84.0216 28.6006 84.3219 27.2262 84.335C25.8256 84.3089 24.5821 84.0216 23.4957 83.46C23.0375 83.2118 22.5794 82.8853 22.1344 82.5065C21.6893 82.1147 21.2836 81.6315 20.9432 81.0568C20.6029 80.4822 20.3149 79.7769 20.1055 78.9541C19.8961 78.1443 19.7914 77.1909 19.7914 76.1069ZM27.2393 71.4312C26.467 71.4312 25.8387 71.588 25.3675 71.9014C24.8963 72.2149 24.5297 72.6067 24.281 73.0769C24.0323 73.547 23.8622 74.0564 23.7836 74.5919C23.7051 75.1404 23.6528 75.6367 23.6528 76.0938C23.6528 76.551 23.692 77.0603 23.7836 77.5958C23.8622 78.1443 24.0323 78.6406 24.281 79.1108C24.5297 79.581 24.8963 79.9728 25.3675 80.2863C25.8387 80.5997 26.467 80.7564 27.2393 80.7564C28.0116 80.7564 28.6398 80.5997 29.1111 80.2863C29.5823 79.9728 29.9488 79.581 30.1975 79.1108C30.4462 78.6406 30.6164 78.1313 30.6949 77.5958C30.7734 77.0603 30.8258 76.551 30.8258 76.0938C30.8258 75.6367 30.7865 75.1274 30.6949 74.5919C30.6164 74.0433 30.4462 73.547 30.1975 73.0769C29.9488 72.6067 29.5823 72.2149 29.1111 71.9014C28.6268 71.588 28.0116 71.4312 27.2393 71.4312Z" fill="#B00F0A"/>
<path d="M54.5569 67.7351C55.879 67.7351 56.9916 67.918 57.9209 68.2967C58.8372 68.6755 59.5964 69.224 60.1985 69.9424C60.8006 70.6607 61.2326 71.5357 61.5075 72.5675C61.7823 73.5993 61.9132 74.7748 61.9132 76.0939V83.238C61.9132 83.8649 61.874 84.4395 61.8085 84.975C61.73 85.5105 61.6384 86.0068 61.5075 86.4639C61.3242 87.1561 61.0101 87.783 60.5781 88.3577C60.1462 88.9324 59.5964 89.4287 58.9288 89.8466C58.2613 90.2645 57.4628 90.5911 56.5465 90.8131C55.6303 91.0482 54.57 91.1527 53.3789 91.1527L49.2033 91.1265V87.5871H52.5935C54.0203 87.5871 55.1067 87.4435 55.8659 87.1431C56.6251 86.8557 57.1748 86.5031 57.5152 86.0982C57.8555 85.6933 58.0649 85.2754 58.1173 84.8575C58.1696 84.4395 58.1958 84.113 58.1958 83.891V81.8274L58.8896 80.9132C58.5362 81.7883 58.078 82.4543 57.5414 82.9245C56.9916 83.3816 56.468 83.7212 55.9444 83.9302C55.3423 84.1653 54.714 84.2959 54.0595 84.3351C52.7637 84.3089 51.6118 84.0216 50.6039 83.46C50.1589 83.2118 49.74 82.8853 49.3342 82.5066C48.9285 82.1148 48.562 81.6315 48.2347 81.0569C47.9075 80.4691 47.6457 79.7769 47.4493 78.9541C47.253 78.1444 47.1483 77.1909 47.1483 76.1069C47.1483 75.0229 47.253 74.0695 47.4624 73.2597C47.6719 72.45 47.9467 71.7447 48.3002 71.1439C48.6536 70.5431 49.0463 70.0468 49.4913 69.655C49.9364 69.2632 50.3945 68.9367 50.8526 68.6885C51.8998 68.1008 53.1433 67.7874 54.5569 67.7351ZM58.1696 76.1069C58.1696 75.5453 58.1304 74.9837 58.0649 74.4352C57.9864 73.8866 57.8293 73.3773 57.5937 72.9332C57.3581 72.4892 56.9916 72.1235 56.5073 71.8492C56.023 71.5749 55.3816 71.4443 54.5569 71.4443C53.7847 71.4443 53.1564 71.601 52.6851 71.9145C52.2139 72.228 51.8474 72.6198 51.5987 73.0899C51.35 73.5601 51.1799 74.0695 51.1013 74.605C51.0228 75.1535 50.9704 75.6498 50.9704 76.1069C50.9704 76.564 51.0097 77.0734 51.1013 77.6089C51.1929 78.1444 51.35 78.6537 51.5987 79.1239C51.8474 79.5941 52.2139 79.9859 52.6851 80.2994C53.1564 80.6128 53.7847 80.7695 54.5569 80.7695C55.3292 80.7695 55.9575 80.6128 56.4287 80.2994C56.9 79.9859 57.2665 79.5941 57.5283 79.1239C57.79 78.6537 57.9602 78.1444 58.0518 77.6089C58.1173 77.0603 58.1696 76.564 58.1696 76.1069Z" fill="#B00F0A"/>
<path d="M7.7359 77.3999H13.9011C13.5215 78.4448 12.9324 79.2676 12.1471 79.8553C11.2831 80.4953 10.2098 80.8218 8.95322 80.8218C8.16785 80.8218 7.43484 80.665 6.79345 80.3647C6.15207 80.0643 5.60231 79.6333 5.14417 79.0847C4.68604 78.5362 4.31954 77.8832 4.07084 77.1387C3.80904 76.3943 3.67815 75.5714 3.67815 74.6833C3.67815 73.7952 3.80904 72.9724 4.07084 72.2279C4.33262 71.4835 4.68604 70.8305 5.14417 70.295C5.60231 69.7595 6.15207 69.3285 6.79345 69.0281C7.43484 68.7277 8.16785 68.571 8.95322 68.571C9.9742 68.571 10.8905 68.8192 11.6758 69.3155C12.4612 69.8118 13.0633 70.504 13.4822 71.379L13.5476 71.5096H17.553L17.4614 71.1831C17.1734 70.2036 16.7546 69.3024 16.2179 68.5057C15.6812 67.709 15.0398 67.0168 14.3199 66.4552C13.5869 65.8936 12.7623 65.4365 11.8722 65.123C10.969 64.8096 10.0004 64.6528 8.9794 64.6528C7.65736 64.6528 6.44004 64.901 5.35361 65.4104C4.26718 65.9067 3.31164 66.6119 2.51319 67.5C1.71473 68.3882 1.08643 69.4591 0.654475 70.6868C0.222522 71.9145 0 73.2467 0 74.6833C0 76.133 0.222522 77.4783 0.654475 78.6929C1.08643 79.9075 1.71473 80.9785 2.51319 81.8666C3.31164 82.7547 4.26718 83.46 5.35361 83.9563C6.44004 84.4526 7.65736 84.7138 8.9794 84.7138C10.2098 84.7138 11.3617 84.4918 12.4088 84.0347C13.456 83.5906 14.3854 82.9506 15.1707 82.167C15.9561 81.3703 16.5975 80.4038 17.0687 79.2937C17.5399 78.1835 17.8279 76.9689 17.9326 75.6367V73.6385H7.74899V77.3999H7.7359Z" fill="#B00F0A"/>
<path d="M128.251 64.013H131.536V64.6921H130.28V67.7352H129.508V64.6921H128.251V64.013Z" fill="#B00F0A"/>
<path d="M132.688 64.9924V67.7352H131.968V63.9998H132.963L133.984 65.9981L135.005 63.9998H136V67.7352H135.267V64.9924L133.971 67.4609L132.688 64.9924Z" fill="#B00F0A"/>
<path d="M91.6658 70.3734V62.8897H95.4094V76.0808C95.4094 77.1648 95.3047 78.1183 95.0953 78.928C94.8858 79.7378 94.611 80.443 94.2575 81.0438C93.9172 81.6446 93.5245 82.1278 93.0795 82.5196C92.6344 82.9115 92.1894 83.2249 91.7313 83.4731C90.6448 84.0347 89.4144 84.3351 88.0531 84.3481C86.6525 84.322 85.409 84.0347 84.3226 83.4731C83.8644 83.2249 83.4063 82.8984 82.9613 82.5196C82.5162 82.1278 82.1104 81.6446 81.7701 81.0699C81.4298 80.4822 81.1418 79.79 80.9324 78.9672C80.7229 78.1574 80.6182 77.204 80.6182 76.12C80.6182 75.036 80.7229 74.0826 80.9193 73.2728C81.1156 72.4631 81.3774 71.7578 81.7047 71.157C82.0319 70.5562 82.3984 70.0599 82.8042 69.6681C83.21 69.2763 83.6419 68.9498 84.0739 68.7016C85.0818 68.1139 86.2336 67.8005 87.5295 67.7613C88.184 67.8266 88.8123 67.9833 89.4144 68.2315C89.938 68.4665 90.4747 68.8061 91.0113 69.2763C91.5611 69.7465 92.0061 70.4256 92.3596 71.3007L91.6658 70.3734ZM88.0531 80.7695C88.8254 80.7695 89.4537 80.6128 89.9249 80.2994C90.3961 79.9859 90.7626 79.5941 91.0244 79.1239C91.2862 78.6537 91.4564 78.1444 91.548 77.6089C91.6265 77.0604 91.6789 76.5641 91.6789 76.1069C91.6789 75.6498 91.6396 75.1405 91.548 74.605C91.4695 74.0564 91.2862 73.5601 91.0244 73.09C90.7626 72.6198 90.3961 72.228 89.9249 71.9145C89.4537 71.6011 88.8254 71.4443 88.0531 71.4443C87.2808 71.4443 86.6525 71.6011 86.1813 71.9145C85.7101 72.228 85.3436 72.6198 85.0949 73.09C84.8462 73.5601 84.676 74.0695 84.5975 74.605C84.5189 75.1535 84.4666 75.6498 84.4666 76.1069C84.4666 76.5641 84.5058 77.0734 84.5975 77.6089C84.6891 78.1444 84.8462 78.6537 85.0949 79.1239C85.3436 79.5941 85.7101 79.9859 86.1813 80.2994C86.6525 80.6128 87.2808 80.7695 88.0531 80.7695Z" fill="#B00F0A"/>
<path d="M61.8871 24.1262C67.2014 14.6051 85.9587 37.3564 90.095 42.8288C90.5531 43.4296 90.252 44.3177 89.519 44.5266C66.7564 50.6259 56.468 33.8693 61.8871 24.1262Z" fill="#B00F0A"/>
<path d="M45.7609 13.3643C49.0464 14.9316 50.2637 15.7413 48.2348 24.309C44.3472 41.3269 62.1359 47.9746 63.9422 48.6016C64.0339 48.6277 64.0862 48.7191 64.0862 48.8105V57.9529C64.0862 58.1488 64.3218 58.2402 64.4658 58.1096C67.2539 55.6281 67.4371 50.0382 67.4502 48.8628C67.4502 48.7452 67.5549 48.6407 67.6727 48.6407H68.9032C69.021 48.6407 69.1257 48.7452 69.1257 48.8628V57.9529C69.1257 58.1488 69.3613 58.2402 69.5053 58.1226C71.9792 55.9285 72.5944 49.6203 72.6991 48.4709C72.7122 48.3665 72.7907 48.275 72.8955 48.275L76.5998 47.9485C76.8616 47.9224 76.8747 47.5567 76.626 47.5045C71.0629 46.4596 54.6356 41.9015 59.2693 25.1188C61.5992 16.6948 59.3085 12.7244 55.9969 11.2355C54.8974 7.00388 52.1617 -1.25036 47.672 0.160176C44.5043 1.16583 50.892 5.17541 54.8843 10.8437C51.18 9.79882 46.7557 11.2877 45.774 12.9725C45.6824 13.1292 45.5908 13.286 45.7609 13.3643ZM50.9967 13.5994C50.9967 13.0901 51.4156 12.6721 51.9261 12.6721C52.4366 12.6721 52.8554 13.0901 52.8554 13.5994C52.8554 14.1088 52.4366 14.5267 51.9261 14.5267C51.4025 14.5267 50.9967 14.1218 50.9967 13.5994Z" fill="#B00F0A"/>
</svg>
