<svg width="61" height="60" viewBox="0 0 61 60" fill="none" xmlns="http://www.w3.org/2000/svg">
<path fill-rule="evenodd" clip-rule="evenodd" d="M33.8958 1.80286L37.7185 4.66427C38.764 5.44684 39.8644 5.84734 41.1684 5.91994L45.9358 6.18514C48.7906 6.34388 51.1092 8.28932 51.7612 11.0732L52.8504 15.7224C53.1482 16.9938 53.7338 18.008 54.686 18.9016L58.1677 22.1695C60.2525 24.126 60.778 27.1067 59.4882 29.6584L57.3341 33.9198C56.745 35.0853 56.5416 36.2385 56.6966 37.5352L57.2634 42.2765C57.6027 45.1155 56.0894 47.7365 53.4612 48.8621L49.0717 50.742C47.8712 51.2561 46.9742 52.0088 46.2595 53.1017L43.646 57.0979C42.0811 59.4908 39.237 60.5259 36.5002 59.6988L31.9294 58.3175C30.6794 57.9397 29.5084 57.9397 28.2582 58.3175L23.6875 59.6988C20.9507 60.5259 18.1066 59.4908 16.5417 57.0979L13.9282 53.1017C13.2134 52.0088 12.3163 51.2561 11.1159 50.742L6.72626 48.8619C4.09807 47.7362 2.58473 45.1152 2.92404 42.2762L3.4908 37.535C3.64578 36.2383 3.4424 35.0851 2.85331 33.9196L0.699226 29.6582C-0.590544 27.1066 -0.0650304 24.1259 2.01972 22.1692L5.50144 18.9014C6.45366 18.0077 7.03911 16.9936 7.33691 15.7221L8.42606 11.073C9.07809 8.2892 11.3967 6.34376 14.2515 6.18489L19.0189 5.91969C20.3229 5.84721 21.4233 5.44659 22.4688 4.66402L26.2915 1.80261C28.5802 0.0895187 31.6069 0.0895188 33.8958 1.80286ZM27.6551 31.8865L23.5067 27.7381C22.4315 26.6628 20.6874 26.6628 19.6123 27.7381C18.5371 28.8133 18.5371 30.5572 19.6123 31.6324L25.7139 37.734C26.7892 38.8091 28.5332 38.8092 29.6083 37.734C33.286 34.0561 36.9221 30.337 40.5829 26.6424C41.6504 25.565 41.647 23.8266 40.571 22.7567C39.4949 21.6864 37.7515 21.6895 36.6829 22.7687L27.6551 31.8865ZM30.0936 9.74172C24.4308 9.74172 19.304 12.0371 15.5929 15.7482C11.8818 19.4594 9.58642 24.5861 9.58642 30.2489C9.58642 35.9117 11.8818 41.0385 15.5929 44.7496C19.304 48.4606 24.4308 50.756 30.0936 50.756C35.7564 50.756 40.8832 48.4606 44.5943 44.7496C48.3054 41.0385 50.6007 35.9117 50.6007 30.2489C50.6007 24.5861 48.3054 19.4593 44.5943 15.7482C40.8832 12.0371 35.7564 9.74172 30.0936 9.74172ZM43.1757 17.1667C39.8278 13.8188 35.2025 11.748 30.0936 11.748C24.9847 11.748 20.3594 13.8188 17.0114 17.1667C13.6635 20.5147 11.5927 25.14 11.5927 30.2489C11.5927 35.3578 13.6635 39.9831 17.0114 43.331C20.3594 46.679 24.9847 48.7498 30.0936 48.7498C35.2025 48.7498 39.8278 46.679 43.1757 43.3311C46.5237 39.9832 48.5944 35.3579 48.5944 30.249C48.5945 25.14 46.5237 20.5147 43.1757 17.1667Z" fill="#B00F0A"/>
</svg>
