<svg width="67" height="67" viewBox="0 0 67 67" fill="none" xmlns="http://www.w3.org/2000/svg">
<g clip-path="url(#clip0_32_365)">
<path d="M65.5112 16.5722C65.5112 16.5014 65.5112 16.5014 65.5112 16.4306C65.4404 16.2889 65.4404 16.1473 65.3696 16.0056V15.9348C65.2987 15.7932 65.1571 15.6515 65.0863 15.5807L65.0155 15.5099C64.9446 15.4391 64.803 15.3683 64.7322 15.2974L64.6614 15.2266H64.5905L64.5197 15.1558L34.4206 0.212464C33.854 -0.0708215 33.1458 -0.0708215 32.5084 0.212464L22.3809 5.24079L52.6217 20.7507L52.6925 20.8215C52.7633 20.8215 52.7633 20.8923 52.8342 20.8923C52.905 20.9632 52.905 21.034 52.9758 21.1048C52.9758 21.1756 52.9758 21.1756 52.9758 21.2464V21.3173V37.7478C52.9758 38.0311 52.8342 38.2436 52.6217 38.3852L46.5311 41.5722C46.177 41.7847 45.752 41.643 45.5396 41.2889C45.4687 41.2181 45.4687 41.0764 45.4687 40.9348V24.8583L14.8739 9.06515L14.803 8.99433L2.55093 15.085L2.48011 15.1558H2.40929L2.33846 15.2266C2.26764 15.2974 2.126 15.3683 2.05518 15.4391L1.98436 15.5099C1.84271 15.6515 1.77189 15.7932 1.63025 15.9348V16.0056C1.55943 16.1473 1.48861 16.2889 1.48861 16.4306C1.48861 16.5014 1.48861 16.5014 1.48861 16.5722C1.48861 16.7139 1.41779 16.7847 1.41779 16.9263V16.9971V49.9999C1.41779 50.779 1.84271 51.558 2.62175 51.9121L32.4376 66.7846C32.8625 66.9971 33.3583 67.0679 33.854 66.9263L33.9957 66.8555C34.1373 66.8555 34.2081 66.7846 34.3498 66.7138L64.3781 51.8413C65.0863 51.4872 65.582 50.779 65.582 49.9291V16.9971V16.9263C65.5112 16.7847 65.5112 16.7139 65.5112 16.5722Z" fill="white"/>
</g>
<defs>
<clipPath id="clip0_32_365">
<rect width="67" height="67" fill="white"/>
</clipPath>
</defs>
</svg>
